<?xml version="1.0" encoding="UTF-8"?>
<svg id="uuid-208540ab-1a9c-4f2c-894b-5e29b3784b0a" data-name="Layer 2" xmlns="http://www.w3.org/2000/svg" viewBox="0 0 768 768">
  <defs>
    <style>
      .uuid-097b35af-29ec-4b42-9504-f3785ec70c1f {
        fill: #fff;
        fill-rule: evenodd;
      }
    </style>
  </defs>
  <g id="uuid-5b3167eb-cfd5-48d4-946c-a7cc9c0e4f3b" data-name="Layer 1">
    <path class="uuid-097b35af-29ec-4b42-9504-f3785ec70c1f" d="M384,0c211.9,0,384,172.1,384,384s-172.1,384-384,384S0,595.9,0,384,172.1,0,384,0ZM614,268.5c-5.5-20.7-21.8-36.9-42.4-42.4-37.4-10-187.5-10-187.5-10,0,0-150.1,0-187.5,10-20.6,5.5-36.9,21.8-42.4,42.4-10,37.4-10,115.5-10,115.5,0,0,0,78.1,10,115.5,5.5,20.7,21.8,36.9,42.4,42.4,37.4,10,187.5,10,187.5,10,0,0,150.1,0,187.5-10,20.7-5.5,36.9-21.8,42.4-42.4,10-37.4,10-115.5,10-115.5,0,0,0-78.1-10-115.5h0ZM336,456v-144l124.7,72-124.7,72h0Z"/>
  </g>
</svg>